<svg width="27" height="12" viewBox="0 0 27 12" fill="none" xmlns="http://www.w3.org/2000/svg">
<path fill-rule="evenodd" clip-rule="evenodd" d="M9.33621 1.94575C9.47832 1.84288 9.59231 1.71883 9.67136 1.58099C9.75042 1.44316 9.79293 1.29436 9.79636 1.14349C9.79978 0.992614 9.76406 0.842748 9.69131 0.702831C9.61856 0.562915 9.51028 0.435817 9.37293 0.329115C9.23558 0.222413 9.07197 0.138296 8.89187 0.0817814C8.71176 0.0252666 8.51885 -0.00248718 8.32463 0.000174522C8.13042 0.00283623 7.93889 0.0358601 7.76146 0.0972757C7.58403 0.15869 7.42435 0.247239 7.29193 0.357638L1.02407 5.22686L0 6.02092L1.02214 6.81498L7.29 11.6842C7.56267 11.889 7.92798 12.0024 8.30723 12C8.68648 11.9975 9.04934 11.8795 9.31764 11.6713C9.58595 11.463 9.73824 11.1812 9.74172 10.8866C9.74519 10.592 9.59957 10.3081 9.33621 10.0961L5.53693 7.14459L25.5536 7.14459C25.9372 7.14459 26.3051 7.0262 26.5764 6.81547C26.8476 6.60474 27 6.31893 27 6.02092C27 5.7229 26.8476 5.4371 26.5764 5.22637C26.3051 5.01564 25.9372 4.89725 25.5536 4.89725L5.53693 4.89725L9.33621 1.94575Z" fill="#292128"/>
</svg>
