<svg width="147" height="16" viewBox="0 0 147 16" fill="none" xmlns="http://www.w3.org/2000/svg">
<path d="M7.524 13.216C6.552 13.216 5.646 13.06 4.806 12.748C3.978 12.424 3.258 11.968 2.646 11.38C2.034 10.792 1.554 10.102 1.206 9.31C0.87 8.518 0.702 7.648 0.702 6.7C0.702 5.752 0.87 4.882 1.206 4.09C1.554 3.298 2.034 2.608 2.646 2.02C3.27 1.432 3.996 0.981999 4.824 0.669999C5.652 0.345999 6.558 0.184 7.542 0.184C8.634 0.184 9.618 0.376 10.494 0.76C11.382 1.132 12.126 1.684 12.726 2.416L10.854 4.144C10.422 3.652 9.942 3.286 9.414 3.046C8.886 2.794 8.31 2.668 7.686 2.668C7.098 2.668 6.558 2.764 6.066 2.956C5.574 3.148 5.148 3.424 4.788 3.784C4.428 4.144 4.146 4.57 3.942 5.062C3.75 5.554 3.654 6.1 3.654 6.7C3.654 7.3 3.75 7.846 3.942 8.338C4.146 8.83 4.428 9.256 4.788 9.616C5.148 9.976 5.574 10.252 6.066 10.444C6.558 10.636 7.098 10.732 7.686 10.732C8.31 10.732 8.886 10.612 9.414 10.372C9.942 10.12 10.422 9.742 10.854 9.238L12.726 10.966C12.126 11.698 11.382 12.256 10.494 12.64C9.618 13.024 8.628 13.216 7.524 13.216ZM13.696 13L19.312 0.399999H22.192L27.826 13H24.766L20.158 1.876H21.31L16.684 13H13.696ZM16.504 10.3L17.278 8.086H23.758L24.55 10.3H16.504ZM38.6393 11.704V2.776H34.3193L34.2653 4.612C34.2293 5.392 34.1753 6.13 34.1033 6.826C34.0433 7.522 33.9473 8.158 33.8153 8.734C33.6833 9.298 33.5093 9.778 33.2933 10.174C33.0893 10.57 32.8313 10.852 32.5193 11.02L29.4053 10.624C29.8373 10.636 30.1913 10.486 30.4673 10.174C30.7553 9.862 30.9833 9.424 31.1513 8.86C31.3193 8.284 31.4393 7.612 31.5113 6.844C31.5953 6.076 31.6553 5.242 31.6913 4.342L31.8353 0.399999H41.5193V11.704H38.6393ZM28.9913 15.61L29.0093 10.624H43.2833V15.61H40.5833V13H31.6913V15.61H28.9913ZM44.8682 0.399999H48.2342L50.8442 4.216L53.4542 0.399999H56.8742L52.6802 6.43L57.2162 13H53.7782L50.8442 8.824L47.9462 13H44.5802L49.0802 6.556L44.8682 0.399999ZM57.5865 13L63.2025 0.399999H66.0825L71.7165 13H68.6565L64.0485 1.876H65.2005L60.5745 13H57.5865ZM60.3945 10.3L61.1685 8.086H67.6485L68.4405 10.3H60.3945ZM82.7474 0.399999H85.6634V13H82.7474V0.399999ZM77.0234 13H74.1074V0.399999H77.0234V13ZM82.9634 7.834H76.8074V5.368H82.9634V7.834ZM88.1183 13L93.7343 0.399999H96.6143L102.248 13H99.1883L94.5803 1.876H95.7323L91.1063 13H88.1183ZM90.9263 10.3L91.7003 8.086H98.1803L98.9723 10.3H90.9263ZM113.175 13V2.11L113.841 2.776H109.161V0.399999H120.087V2.776H115.407L116.055 2.11V13H113.175ZM122.525 10.624C123.221 10.828 123.803 10.888 124.271 10.804C124.751 10.708 125.177 10.372 125.549 9.796L126.161 8.878L126.431 8.572L130.607 0.399999H133.469L128.105 10.372C127.625 11.272 127.055 11.962 126.395 12.442C125.747 12.922 125.033 13.192 124.253 13.252C123.473 13.324 122.663 13.186 121.823 12.838L122.525 10.624ZM126.377 11.002L120.689 0.399999H123.803L127.979 8.86L126.377 11.002ZM135.575 13V0.399999H141.029C142.157 0.399999 143.129 0.585999 143.945 0.957999C144.761 1.318 145.391 1.84 145.835 2.524C146.279 3.208 146.501 4.024 146.501 4.972C146.501 5.908 146.279 6.718 145.835 7.402C145.391 8.086 144.761 8.614 143.945 8.986C143.129 9.346 142.157 9.526 141.029 9.526H137.195L138.491 8.212V13H135.575ZM138.491 8.536L137.195 7.15H140.867C141.767 7.15 142.439 6.958 142.883 6.574C143.327 6.19 143.549 5.656 143.549 4.972C143.549 4.276 143.327 3.736 142.883 3.352C142.439 2.968 141.767 2.776 140.867 2.776H137.195L138.491 1.39V8.536Z" fill="#BB9773"/>
</svg>
