<svg width="62" height="62" viewBox="0 0 62 62" fill="none" xmlns="http://www.w3.org/2000/svg">
<circle cx="31" cy="31" r="30" transform="rotate(-180 31 31)" stroke="black" stroke-width="2"/>
<path fill-rule="evenodd" clip-rule="evenodd" d="M34.6638 35.0542C34.5217 35.1571 34.4077 35.2812 34.3286 35.419C34.2496 35.5568 34.2071 35.7056 34.2036 35.8565C34.2002 36.0074 34.2359 36.1573 34.3087 36.2972C34.3814 36.4371 34.4897 36.5642 34.6271 36.6709C34.7644 36.7776 34.928 36.8617 35.1081 36.9182C35.2882 36.9747 35.4812 37.0025 35.6754 36.9998C35.8696 36.9972 36.0611 36.9641 36.2385 36.9027C36.416 36.8413 36.5757 36.7528 36.7081 36.6424L42.9759 31.7731L44 30.9791L42.9779 30.185L36.71 25.3158C36.4373 25.111 36.072 24.9976 35.6928 25C35.3135 25.0025 34.9507 25.1205 34.6824 25.3287C34.414 25.537 34.2618 25.8188 34.2583 26.1134C34.2548 26.408 34.4004 26.6919 34.6638 26.9039L38.4631 29.8554H18.4464C18.0628 29.8554 17.6949 29.9738 17.4236 30.1845C17.1524 30.3953 17 30.6811 17 30.9791C17 31.2771 17.1524 31.5629 17.4236 31.7736C17.6949 31.9844 18.0628 32.1027 18.4464 32.1027H38.4631L34.6638 35.0542Z" fill="black"/>
</svg>
